<svg xmlns="http://www.w3.org/2000/svg" viewBox="0 0 192 192" width="192" height="192">
  <rect width="192" height="192" rx="24" fill="#B8720E"/>
  <g transform="translate(33.600 66.028) scale(0.196535)">
    <path fill-rule="evenodd" clip-rule="evenodd" d="M175.516 0.458252C205.9 -2.5104 259.064 8.95105 279.788 34.681C282.936 40.4863 276.754 43.7368 273.461 45.4682C273.374 45.5138 273.29 45.5584 273.207 45.602C261.972 51.528 248.132 50.7627 234.463 50.0068C213.922 48.8708 193.766 47.7562 183.419 69.4043C177.163 82.4929 169.73 85.9979 161.409 86.3163L160.334 84.3607C159.505 82.8529 157.921 81.9161 156.2 81.9161H114.602C112.881 81.9161 111.297 82.8529 110.468 84.3607L89.4728 122.543C88.6945 123.959 88.6945 125.674 89.4728 127.089L110.468 165.272C111.297 166.779 112.881 167.716 114.602 167.716H156.2C157.921 167.716 159.505 166.779 160.334 165.272L181.329 127.089C182.107 125.674 182.107 123.959 181.329 122.543L180.617 121.248C186.476 118.525 194.395 118.512 202.532 118.498C210.649 118.484 218.982 118.47 225.704 115.767C233.366 112.686 237.949 108.388 242.643 103.986C246.216 100.635 249.854 97.2229 254.964 94.2431C257.336 92.8599 258.993 92.3913 261.623 93.1973C261.808 93.4057 261.981 93.5926 262.142 93.7664C263.087 94.7848 263.618 95.3559 263.496 97.1899C261.16 126.188 248.022 154.214 230.756 177.243C194.502 225.601 104.383 244.58 60.7167 196.594C59.8612 195.653 59.0623 194.491 58.2518 193.312C56.1162 190.205 53.9004 186.982 50.3579 187.38C49.6617 188.355 49.2108 189.298 49.1884 190.486C48.8839 206.396 53.329 224.508 63.8891 236.004C88.3364 262.631 109.799 257.376 132.991 251.699C147.27 248.203 162.204 244.547 178.893 248.071C184.986 249.352 194.293 254.405 199.646 257.826C202.351 259.554 205.642 262.287 209.188 265.231C216.749 271.51 225.467 278.75 232.131 279.249L178.825 278.331C171.795 268.246 154.246 279.673 138.022 290.238C128.113 296.69 118.699 302.82 112.478 303.531C50.0588 310.654 4.82887 267.347 0.474713 205.146C-3.13088 153.458 13.9149 102.471 47.7815 63.6419C80.9912 25.158 125.461 3.8799 175.516 0.458252Z" fill="white"/>
    <path fill-rule="evenodd" clip-rule="evenodd" d="M229.654 249.063C232.146 256.639 235.426 272.298 233.175 279.249L401.464 279.07C398.197 274.082 402.357 257.247 405.227 245.635C406.285 241.355 407.167 237.785 407.438 235.778C411.216 207.677 396.607 187.077 366.996 190.924C356.068 192.009 348.01 200.541 340.363 208.638C330.666 218.904 321.631 228.471 308.244 221.266C303.581 217.843 299.236 213.591 294.88 209.328C283.304 197.999 271.645 186.589 253.709 190.429C225.583 196.454 222.072 226.031 229.654 249.063ZM391.541 226.501C390.92 215.536 381.604 207.115 370.64 207.603C363.424 207.918 356.936 212.088 353.657 218.527C350.378 224.965 350.814 232.664 354.799 238.686C358.784 244.717 365.701 248.135 372.907 247.636C383.856 246.873 392.161 237.455 391.541 226.501ZM264.49 207.603C275.454 207.115 284.77 215.536 285.391 226.501C286.011 237.455 277.706 246.873 266.757 247.636C259.551 248.135 252.634 244.717 248.649 238.686C244.664 232.664 244.228 224.965 247.507 218.527C250.786 212.088 257.273 207.918 264.49 207.603Z" fill="white"/>
    <path fill-rule="evenodd" clip-rule="evenodd" d="M425.563 264.914C428.525 262.467 431.281 260.192 433.634 258.56C458.839 241.074 477.961 245.882 502.24 251.987C506.536 253.067 510.994 254.188 515.675 255.233C530.23 258.482 547.152 255.124 559.649 245.986C572.785 236.45 581.574 221.946 584.033 205.763C584.75 201.054 586.276 190.815 583.647 187.206C580.447 187.257 578.18 190.413 576.114 193.287C575.518 194.117 574.938 194.924 574.358 195.626C569.3 201.725 563.28 206.935 556.542 211.035C502.654 243.799 418.308 213.886 391.372 159.304C391.2 158.955 391.027 158.605 390.853 158.252C381.943 140.2 370.395 116.805 371.159 95.898C371.197 94.7523 372.423 93.387 373.602 93.166C379.555 92.6284 385.522 98.1557 391.745 103.919C396.37 108.204 401.137 112.619 406.143 114.771C415.145 118.64 423.398 118.555 431.407 118.472C438.615 118.397 445.625 118.325 452.806 121.139L452.033 122.543C451.255 123.959 451.255 125.674 452.033 127.089L473.028 165.272C473.857 166.779 475.442 167.716 477.162 167.716H518.761C520.481 167.716 522.066 166.779 522.895 165.272L543.889 127.089C544.668 125.674 544.668 123.959 543.889 122.543L522.895 84.3607C522.066 82.8529 520.481 81.9161 518.761 81.9161H477.162C475.442 81.9161 473.857 82.8529 473.028 84.3608L472.271 85.7379C468.743 85.4093 465.239 84.6524 461.796 83.1979C458.331 81.4027 455.64 77.0089 452.566 71.9903C447.473 63.6752 441.329 53.645 428.877 50.8785C419.335 48.5689 409.493 49.2886 399.665 50.0074C389.253 50.7688 378.855 51.5292 368.846 48.6854C331.572 38.094 375.746 17.2681 389.206 11.676C425.362 -3.63665 471.594 -2.93216 508.328 10.1523C555.64 27.0996 594.286 62.5157 615.664 108.507C633.649 146.431 641.274 197.82 627.389 237.84C611.925 281.991 572.7 307.78 526.568 303.766C521.356 303.313 511.343 297.642 500.4 291.443C481.125 280.525 458.961 267.971 455.042 279.409L402.535 279.07C409.467 278.205 418.16 271.026 425.563 264.914Z" fill="white"/>
  </g>
</svg>
